<svg xmlns="http://www.w3.org/2000/svg" viewBox="0 0 44.3 26.9">
  <path fill="#c679dd" d="M0 0h44.3v27H0V0zm3.2 3.2v20.6h38V3h-38zM13.6 19h-2.2v-1c-.6.7-1.3 1-2.3 1 0 0-1 0-1-.5-1-.5-1-1-1-1.5 0-1.6 1-2.4 2.7-2.6l2-.3s-.4-1-1.3-1c-.3 0-1.2 0-2 1v-2H11c2 0 3 1 3 3v4zm-2.2-3v-.5l-1.4.2c-.8 0-1.2.4-1.2 1 0 .2 0 .4.3.6l1 .2c1 0 1 0 1-.4 1 0 1 0 1-1zm6.2 2v1h-2.3V8h2.3v5c.6-1 1.4-1.3 2.4-1.3s1.7.3 2.3 1c.5.6.7 1.5.7 2.6 0 1.3-.3 2.3-1 3-.5.8-1.3 1-2.3 1-1 0-1.6-.2-2-1zm0-3v.8c0 .4 0 .8.3 1 0 .4 0 .6 1 .6 0 0 1-.2 1-.6V15s-.4-1-.6-1l-1-.3s-1 .2-1 .5c-.5.4-.7.8-.7 1.3zM30 18.7c-.5.3-1.3.4-2.2.4-1 0-2 0-2.7-1 0 0-1-1-1-2s1-2 2-3c.7-.4 1.7-1 3-1 .8 0 1.4 0 1.8.6v2c-.4-.4-1-.6-1.4-.6-.7 0-1.2 0-1.5.5-.4.2-.6 1-.6 1.3 0 .7 0 1.2.4 1.5.4.4 1 .6 1.5.6s1-.4 1.4-.8v2zm1.3 3.5V4.8h2V22h-2z"/>
</svg>
